<?xml version="1.0" encoding="utf-8"?>
<!-- Generator: Adobe Illustrator 25.2.0, SVG Export Plug-In . SVG Version: 6.00 Build 0)  -->
<svg version="1.1" id="Layer_2" xmlns="http://www.w3.org/2000/svg" xmlns:xlink="http://www.w3.org/1999/xlink" x="0px" y="0px"
	 viewBox="0 0 3000 3000" style="enable-background:new 0 0 3000 3000;" xml:space="preserve">
<style type="text/css">
	.st0{fill:url(#SVGID_1_);}
	.st1{fill:url(#SVGID_2_);}
	.st2{fill:url(#SVGID_3_);}
	.st3{fill:url(#SVGID_4_);}
	.st4{fill:none;stroke:#00AEEF;stroke-miterlimit:10;}
	.st5{fill:#FFFFFF;stroke:#00AEEF;stroke-miterlimit:10;}
	.st6{fill:url(#SVGID_5_);}
	.st7{fill:url(#SVGID_6_);}
	.st8{fill:url(#SVGID_7_);}
	.st9{fill:url(#SVGID_8_);}
	.st10{fill:url(#SVGID_9_);}
	.st11{fill:url(#SVGID_10_);}
	.st12{fill:url(#SVGID_11_);}
	.st13{fill:url(#SVGID_12_);}
	.st14{fill:url(#SVGID_13_);}
	.st15{fill:url(#SVGID_14_);}
</style>
<g>
	<linearGradient id="SVGID_1_" gradientUnits="userSpaceOnUse" x1="1243.0571" y1="1247.2957" x2="2499.3113" y2="1247.2957">
		<stop  offset="0" style="stop-color:#FFFFFF"/>
		<stop  offset="0.7691" style="stop-color:#1C75BC"/>
	</linearGradient>
	<path class="st0" d="M2499.31,1509.69c0.22,99.31-14.09,198.67-43.34,293.91l-1.14-0.39c-12.65-310.2-227.78-568.2-516.77-645.39
		c-32.84-8.76-66.63-15.2-101.19-19.12c-21.3-3.45-43.38-4.74-65.96-4.82c-11.13-0.03-140.44,3.27-140.44,1.5v273.46h-260.93
		v-273.46h-126.48c17.48-62.03,44.52-120.06,79.43-172.39c6.64-9.98,13.58-19.75,20.81-29.29c8.37-11.1,17.14-21.9,26.24-32.39
		c69.3-79.81,158.97-141.44,260.93-176.78c39.83-13.82,81.54-23.62,124.64-28.92c24.68-3.04,49.82-4.6,75.33-4.6
		c197.32,0,372.77,93.66,484.29,238.95c0.89,1.25,1.78,2.5,2.65,3.75c20.45,28.98,39.4,59.08,56.73,90.22
		C2456.53,1172.01,2498.93,1340.77,2499.31,1509.69z"/>
	<linearGradient id="SVGID_2_" gradientUnits="userSpaceOnUse" x1="500.6888" y1="1754.3108" x2="1756.943" y2="1754.3108">
		<stop  offset="0.321" style="stop-color:#F05F8A"/>
		<stop  offset="1" style="stop-color:#FFFFFF"/>
	</linearGradient>
	<path class="st1" d="M1756.94,1864.62c-17.48,62.03-44.52,120.06-79.43,172.39c-6.64,9.98-13.58,19.75-20.81,29.29
		c-8.38,11.1-17.14,21.9-26.24,32.39c-69.3,79.81-158.97,141.44-260.93,176.78c-40.18,13.94-82.26,23.78-125.76,29.04
		c-24.33,2.96-49.09,4.48-74.21,4.48c-197.32,0-372.77-93.66-484.29-238.95c-0.89-1.25-1.78-2.5-2.65-3.75
		c-20.45-28.98-39.4-59.08-56.73-90.22c-82.42-148.09-124.81-316.85-125.19-485.76c-0.22-98.2,13.78-196.44,42.38-290.69
		c14.31,308.43,228.84,564.57,516.6,641.42c29.29,7.82,59.35,13.79,90.03,17.75c0.01,0,0.01,0,0.02,0c0.02,0,0.05,0.01,0.07,0.01
		c25.38,5.34,51.97,7.22,79.32,7.32c11.13,0.03,140.44-3.27,140.44-1.5v-273.46h260.93v273.46H1756.94z"/>
	<linearGradient id="SVGID_3_" gradientUnits="userSpaceOnUse" x1="1544.9606" y1="1823.2726" x2="2561.1233" y2="1227.4551">
		<stop  offset="0.5264" style="stop-color:#1C75BC"/>
		<stop  offset="0.7767" style="stop-color:#2B3990"/>
	</linearGradient>
	<path class="st2" d="M2454.83,1803.2l-197.11-66.44l-235.97-79.53c5.09-15.28,9.53-30.86,13.27-46.71
		c19.92-84.2,17.99-176.94-0.08-261.41c-12.4-57.88-37.58-114.57-80.69-155.13c-5.3-4.98-10.72-9.57-16.26-13.79
		c-30.57-23.34-64.71-35.57-101.12-41.5c34.56,3.92,68.35,10.36,101.19,19.12C2227.04,1235,2442.18,1493,2454.83,1803.2z"/>
	<linearGradient id="SVGID_4_" gradientUnits="userSpaceOnUse" x1="498.493" y1="1682.1858" x2="1304.0547" y2="1324.7332">
		<stop  offset="0.199" style="stop-color:#D34079"/>
		<stop  offset="0.5955" style="stop-color:#F05F8A"/>
	</linearGradient>
	<path class="st3" d="M1149.69,1858.8c-30.67-3.97-60.73-9.94-90.03-17.75c-287.75-76.86-502.29-332.99-516.6-641.42v-0.01
		c0.32-1.07,0.64-2.13,0.97-3.2l198.25,66.83l235.97,79.53c-5.09,15.28-9.53,30.86-13.27,46.71
		c-19.92,84.2-17.99,176.94,0.08,261.41c12.4,57.88,37.58,114.57,80.69,155.13c4.57,4.3,9.24,8.31,13.99,12.03
		C1087.11,1839.56,1117.41,1851.98,1149.69,1858.8z"/>
</g>
</svg>
